<svg width="122" height="32" viewBox="0 0 122 32" fill="none" xmlns="http://www.w3.org/2000/svg">
<path d="M81.9438 0.602043C83.2428 0.602043 84.3201 1.67927 84.3201 2.97828V26.3288L67.0211 0.316895H63.3775H61.1597V0.602043C62.4587 0.602043 63.5359 1.64759 63.5359 2.97828V29.0218C63.5359 30.3209 62.4904 31.3981 61.1597 31.3981H63.5359H61.1597V31.6832H66.5458V31.3981C65.2468 31.3981 64.1696 30.3525 64.1696 29.0218V1.20402L84.3201 32.0317H84.9537V2.97828C84.9537 1.67927 85.9993 0.602043 87.33 0.602043H84.9537H87.33V0.316895H81.9438V0.602043Z" fill="#210803"/>
<path d="M21.386 0.348578V0.633726V7.28719H21.291H21.1009H21.0375C21.0375 3.61194 18.091 0.633726 14.4474 0.602043H7.85734C6.55833 0.602043 5.4811 1.64759 5.4811 2.97828V0.602043V15.1763H10.0752C11.9445 15.1763 13.4969 13.6555 13.4969 11.7545H13.7821V15.1763V15.7783V19.0416H13.4969V18.8832C13.4969 17.204 12.1662 15.8416 10.5187 15.7783H5.44942V29.0535C5.44942 30.3525 6.49496 31.4298 7.82565 31.4298H5.44942H14.6692C18.3761 31.3981 21.386 28.4199 21.386 24.7129V24.0793H21.7029V31.3981V31.6515V31.5882H0.0315933V31.3664C1.3306 31.3664 2.40783 30.3209 2.40783 28.9902V2.97828C2.40783 1.67927 1.36229 0.602043 0.0315933 0.602043H2.37615H-8.96454e-05V0.316895H21.1009L21.386 0.348578Z" fill="#210803"/>
<path d="M118.601 29.2119L105.896 0H105.263L92.7478 29.0851C92.2409 30.3842 90.6884 31.398 89.3894 31.398V31.6832H94.7755V31.398C93.4765 31.398 92.5894 30.9545 93.4132 29.0851L92.431 31.398L96.8983 20.9743H111.409L114.831 29.0218C115.75 30.9228 114.071 31.398 112.772 31.398H115.845H116.637H119.52H112.803V31.6832H121.865V31.398C120.851 31.398 119.425 30.3842 118.601 29.2119ZM97.1518 20.3723L104.185 4.02376L111.156 20.3723H97.1518Z" fill="#210803"/>
<path d="M40.6495 0.316895C40.3644 0.316895 40.0476 0.316895 39.7624 0.348578H28.2297V0.633726C29.5287 0.633726 30.606 1.67927 30.606 3.00996V0.602043V29.0535C30.606 30.3525 29.5604 31.4298 28.2297 31.4298H30.606H28.2297V31.6515H39.2238C39.5089 31.6515 40.3644 31.6515 40.6495 31.6515C49.6476 31.6515 56.9347 28.103 56.9347 16.0001C56.9347 5.006 49.6476 0.316895 40.6495 0.316895ZM40.0792 31.4298C39.9842 31.4298 39.3505 31.4298 39.2555 31.4298H36.0872C34.7882 31.4298 33.7109 30.3842 33.7109 29.0535V2.97828C33.7109 1.67927 34.7565 0.602043 36.0872 0.602043H33.7109H39.7941C39.8891 0.602043 39.9842 0.602043 40.0792 0.602043C47.5882 0.602043 53.6713 3.35848 53.6713 16.0001C53.6396 28.6733 47.5565 31.4298 40.0792 31.4298Z" fill="#210803"/>
</svg>
