<svg viewBox="0 0 79 10" fill="none" xmlns="http://www.w3.org/2000/svg">
  <path d="M3.126 9.5c-1.14 0-2.152-.274-3.034-.823-.095-.051-.116-.124-.065-.218l.45-.952c.043-.094.112-.111.206-.051.257.163.476.291.656.385.18.086.437.18.771.283a3.68 3.68 0 0 0 1.003.142c.523 0 .93-.112 1.221-.335.318-.231.476-.561.476-.99 0-.497-.368-.887-1.106-1.17a31.025 31.025 0 0 0-1.054-.347c-.583-.188-1.037-.373-1.363-.553C.482 4.417.08 3.77.08 2.93c0-.746.278-1.333.835-1.761C1.48.723 2.277.5 3.306.5c1.011 0 1.903.214 2.674.643.086.051.107.124.064.218l-.45.939c-.051.094-.124.116-.218.064-.703-.411-1.419-.617-2.147-.617-.566 0-.986.116-1.26.347a.938.938 0 0 0-.373.772.83.83 0 0 0 .296.655c.205.163.505.313.9.45.17.06.437.142.797.245.36.103.677.205.951.308.283.103.536.227.759.373.72.454 1.08 1.097 1.08 1.929 0 .831-.317 1.495-.952 1.993-.574.454-1.341.681-2.301.681ZM15.268.616h1.118c.103 0 .155.055.155.167v8.434c0 .103-.052.154-.155.154h-1.118c-.112 0-.167-.051-.167-.154v-3.6h-4.616v3.6c0 .103-.051.154-.154.154H9.199c-.103 0-.154-.051-.154-.154V.783c0-.043.013-.082.039-.116a.16.16 0 0 1 .115-.051h1.132c.043 0 .077.017.103.051a.16.16 0 0 1 .051.116V4.33h4.616V.783c0-.112.055-.167.167-.167ZM19.801.616h1.132c.043 0 .077.017.103.051a.16.16 0 0 1 .051.116v8.434c0 .103-.051.154-.154.154H19.8c-.102 0-.154-.051-.154-.154V.783c0-.043.013-.082.039-.116A.16.16 0 0 1 19.8.616ZM30.523 7.006V.783c0-.112.052-.167.154-.167h1.055c.111 0 .167.055.167.167v8.434c0 .103-.056.154-.167.154h-1.003a.318.318 0 0 1-.283-.167l-4.873-6.21v6.223c0 .103-.051.154-.154.154h-1.067c-.103 0-.155-.051-.155-.154V.783c0-.043.013-.082.039-.116a.16.16 0 0 1 .116-.051h1.003c.11 0 .21.055.295.167l4.873 6.223ZM43.049 5c0 1.749-.66 2.996-1.98 3.741-.755.42-1.71.63-2.867.63h-3.035c-.103 0-.154-.051-.154-.154V.783c0-.043.013-.082.038-.116a.16.16 0 0 1 .116-.051h3.215c1.577 0 2.785.454 3.625 1.363.695.754 1.042 1.761 1.042 3.021Zm-6.596-3.163v6.326h1.633c.831 0 1.508-.137 2.031-.412.977-.497 1.466-1.414 1.466-2.751 0-.943-.244-1.68-.733-2.211-.583-.635-1.474-.952-2.674-.952h-1.723ZM45.97.616h1.132c.043 0 .077.017.103.051a.16.16 0 0 1 .05.116v8.434c0 .103-.05.154-.153.154H45.97c-.103 0-.154-.051-.154-.154V.783c0-.043.013-.082.038-.116a.16.16 0 0 1 .116-.051ZM56.692 7.006V.783c0-.112.051-.167.154-.167H57.9c.112 0 .168.055.168.167v8.434c0 .103-.056.154-.168.154h-1.002a.318.318 0 0 1-.283-.167l-4.873-6.21v6.223c0 .103-.052.154-.154.154H50.52c-.102 0-.154-.051-.154-.154V.783c0-.043.013-.082.039-.116a.16.16 0 0 1 .115-.051h1.003c.112 0 .21.055.296.167l4.873 6.223ZM69.217 5c0 1.749-.66 2.996-1.98 3.741-.754.42-1.71.63-2.867.63h-3.034c-.103 0-.154-.051-.154-.154V.783c0-.043.013-.082.038-.116a.16.16 0 0 1 .116-.051h3.214c1.577 0 2.786.454 3.626 1.363.694.754 1.041 1.761 1.041 3.021Zm-6.595-3.163v6.326h1.633c.831 0 1.508-.137 2.031-.412.977-.497 1.466-1.414 1.466-2.751 0-.943-.245-1.68-.733-2.211-.583-.635-1.474-.952-2.674-.952h-1.723ZM72.139.616h6.12c.103 0 .154.055.154.167v.951c0 .103-.051.155-.154.155h-4.834v2.455h4.165c.103 0 .155.052.155.155v.964c0 .103-.052.154-.155.154h-4.165V8.1h4.834c.103 0 .154.051.154.154v.964c0 .103-.051.154-.154.154h-6.12c-.103 0-.154-.051-.154-.154V.783c0-.043.013-.082.038-.116a.16.16 0 0 1 .116-.051Z" fill="#210803"/>
</svg>
