<svg width="79" height="10" viewBox="0 0 79 10" fill="none" xmlns="http://www.w3.org/2000/svg">
<path d="M3.1258 9.5C1.9858 9.5 0.97437 9.22571 0.0915126 8.67714C-0.00277309 8.62571 -0.0242017 8.55286 0.0272269 8.45857L0.477227 7.50714C0.520084 7.41286 0.588655 7.39571 0.682941 7.45571C0.940084 7.61857 1.15866 7.74714 1.33866 7.84143C1.51866 7.92714 1.7758 8.02143 2.11008 8.12429C2.44437 8.21857 2.77866 8.26571 3.11294 8.26571C3.6358 8.26571 4.04294 8.15429 4.33437 7.93143C4.65151 7.7 4.81008 7.37 4.81008 6.94143C4.81008 6.44429 4.44151 6.05429 3.70437 5.77143C3.59294 5.72857 3.24151 5.61286 2.65008 5.42429C2.06723 5.23571 1.61294 5.05143 1.28723 4.87143C0.481513 4.41714 0.0786555 3.77 0.0786555 2.93C0.0786555 2.18429 0.357227 1.59714 0.91437 1.16857C1.48008 0.722857 2.27723 0.5 3.3058 0.5C4.31723 0.5 5.20865 0.714286 5.98008 1.14286C6.0658 1.19429 6.08723 1.26714 6.04437 1.36143L5.59437 2.3C5.54294 2.39429 5.47008 2.41571 5.3758 2.36429C4.67294 1.95286 3.95723 1.74714 3.22866 1.74714C2.66294 1.74714 2.24294 1.86286 1.96866 2.09429C1.72008 2.29143 1.5958 2.54857 1.5958 2.86571C1.5958 3.13143 1.69437 3.35 1.89151 3.52143C2.09723 3.68429 2.39723 3.83429 2.79151 3.97143C2.96294 4.03143 3.22866 4.11286 3.58866 4.21571C3.94866 4.31857 4.2658 4.42143 4.54008 4.52429C4.82294 4.62714 5.0758 4.75143 5.29866 4.89714C6.01866 5.35143 6.37865 5.99429 6.37865 6.82571C6.37865 7.65714 6.06151 8.32143 5.42723 8.81857C4.85294 9.27286 4.0858 9.5 3.1258 9.5Z" fill="#210803"/>
<path d="M15.2679 0.615714H16.3864C16.4893 0.615714 16.5407 0.671429 16.5407 0.782857V9.21714C16.5407 9.32 16.4893 9.37143 16.3864 9.37143H15.2679C15.1564 9.37143 15.1007 9.32 15.1007 9.21714V5.61714H10.485V9.21714C10.485 9.32 10.4336 9.37143 10.3307 9.37143H9.19929C9.09643 9.37143 9.045 9.32 9.045 9.21714V0.782857C9.045 0.74 9.05786 0.701429 9.08358 0.667143C9.11786 0.632857 9.15643 0.615714 9.19929 0.615714H10.3307C10.3736 0.615714 10.4079 0.632857 10.4336 0.667143C10.4679 0.701429 10.485 0.74 10.485 0.782857V4.33143H15.1007V0.782857C15.1007 0.671429 15.1564 0.615714 15.2679 0.615714Z" fill="#210803"/>
<path d="M19.8014 0.615714H20.9328C20.9757 0.615714 21.01 0.632857 21.0357 0.667143C21.07 0.701429 21.0871 0.74 21.0871 0.782857V9.21714C21.0871 9.32 21.0357 9.37143 20.9328 9.37143H19.8014C19.6986 9.37143 19.6471 9.32 19.6471 9.21714V0.782857C19.6471 0.74 19.66 0.701429 19.6857 0.667143C19.72 0.632857 19.7586 0.615714 19.8014 0.615714Z" fill="#210803"/>
<path d="M30.5231 7.00571V0.782857C30.5231 0.671429 30.5745 0.615714 30.6773 0.615714H31.7316C31.8431 0.615714 31.8988 0.671429 31.8988 0.782857V9.21714C31.8988 9.32 31.8431 9.37143 31.7316 9.37143H30.7288C30.6088 9.37143 30.5145 9.31571 30.4459 9.20429L25.5731 2.99429V9.21714C25.5731 9.32 25.5216 9.37143 25.4188 9.37143H24.3516C24.2488 9.37143 24.1973 9.32 24.1973 9.21714V0.782857C24.1973 0.74 24.2102 0.701429 24.2359 0.667143C24.2702 0.632857 24.3088 0.615714 24.3516 0.615714H25.3545C25.4659 0.615714 25.5645 0.671429 25.6502 0.782857L30.5231 7.00571Z" fill="#210803"/>
<path d="M43.0486 5C43.0486 6.74857 42.3886 7.99571 41.0686 8.74143C40.3143 9.16143 39.3586 9.37143 38.2015 9.37143H35.1672C35.0643 9.37143 35.0129 9.32 35.0129 9.21714V0.782857C35.0129 0.74 35.0258 0.701429 35.0515 0.667143C35.0858 0.632857 35.1243 0.615714 35.1672 0.615714H38.3815C39.9586 0.615714 41.1672 1.07 42.0072 1.97857C42.7015 2.73286 43.0486 3.74 43.0486 5ZM36.4529 1.83714V8.16286H38.0858C38.9172 8.16286 39.5943 8.02571 40.1172 7.75143C41.0943 7.25429 41.5829 6.33714 41.5829 5C41.5829 4.05714 41.3386 3.32 40.8501 2.78857C40.2672 2.15429 39.3758 1.83714 38.1758 1.83714H36.4529Z" fill="#210803"/>
<path d="M45.9702 0.615714H47.1016C47.1445 0.615714 47.1788 0.632857 47.2045 0.667143C47.2388 0.701429 47.2559 0.74 47.2559 0.782857V9.21714C47.2559 9.32 47.2045 9.37143 47.1016 9.37143H45.9702C45.8674 9.37143 45.8159 9.32 45.8159 9.21714V0.782857C45.8159 0.74 45.8288 0.701429 45.8545 0.667143C45.8888 0.632857 45.9274 0.615714 45.9702 0.615714Z" fill="#210803"/>
<path d="M56.6919 7.00571V0.782857C56.6919 0.671429 56.7433 0.615714 56.8462 0.615714H57.9004C58.0119 0.615714 58.0676 0.671429 58.0676 0.782857V9.21714C58.0676 9.32 58.0119 9.37143 57.9004 9.37143H56.8976C56.7776 9.37143 56.6833 9.31571 56.6147 9.20429L51.7419 2.99429V9.21714C51.7419 9.32 51.6904 9.37143 51.5876 9.37143H50.5204C50.4176 9.37143 50.3661 9.32 50.3661 9.21714V0.782857C50.3661 0.74 50.379 0.701429 50.4047 0.667143C50.439 0.632857 50.4776 0.615714 50.5204 0.615714H51.5233C51.6347 0.615714 51.7333 0.671429 51.819 0.782857L56.6919 7.00571Z" fill="#210803"/>
<path d="M69.2174 5C69.2174 6.74857 68.5574 7.99571 67.2374 8.74143C66.4831 9.16143 65.5274 9.37143 64.3703 9.37143H61.336C61.2332 9.37143 61.1817 9.32 61.1817 9.21714V0.782857C61.1817 0.74 61.1946 0.701429 61.2203 0.667143C61.2546 0.632857 61.2931 0.615714 61.336 0.615714H64.5503C66.1274 0.615714 67.336 1.07 68.176 1.97857C68.8703 2.73286 69.2174 3.74 69.2174 5ZM62.6217 1.83714V8.16286H64.2546C65.086 8.16286 65.7631 8.02571 66.286 7.75143C67.2631 7.25429 67.7517 6.33714 67.7517 5C67.7517 4.05714 67.5074 3.32 67.0189 2.78857C66.436 2.15429 65.5446 1.83714 64.3446 1.83714H62.6217Z" fill="#210803"/>
<path d="M72.139 0.615714H78.259C78.3619 0.615714 78.4133 0.671429 78.4133 0.782857V1.73429C78.4133 1.83714 78.3619 1.88857 78.259 1.88857H73.4247V4.34429H77.5904C77.6933 4.34429 77.7447 4.39571 77.7447 4.49857V5.46286C77.7447 5.56571 77.6933 5.61714 77.5904 5.61714H73.4247V8.09857H78.259C78.3619 8.09857 78.4133 8.15 78.4133 8.25286V9.21714C78.4133 9.32 78.3619 9.37143 78.259 9.37143H72.139C72.0362 9.37143 71.9847 9.32 71.9847 9.21714V0.782857C71.9847 0.74 71.9976 0.701429 72.0233 0.667143C72.0576 0.632857 72.0962 0.615714 72.139 0.615714Z" fill="#210803"/>
</svg>
