<svg aria-hidden="true" style="position: absolute; width: 0; height: 0; overflow: hidden;" version="1.1"
    xmlns="http://www.w3.org/2000/svg" xmlns:xlink="http://www.w3.org/1999/xlink">
    <defs>
        <symbol id="logo" viewBox="0 0 253 32">
            <path
                d="M10.003 30.4c-3.648 0-6.886-0.877-9.709-2.634-0.304-0.163-0.371-0.397-0.208-0.698l1.44-3.046c0.138-0.301 0.358-0.355 0.659-0.163 0.822 0.522 1.523 0.931 2.099 1.232 0.576 0.275 1.398 0.576 2.467 0.906 0.961 0.286 2.065 0.451 3.208 0.454h0.002c1.674 0 2.976-0.358 3.907-1.072 1.018-0.739 1.523-1.795 1.523-3.168 0-1.59-1.178-2.838-3.539-3.744-0.419-0.181-1.54-0.559-2.67-0.918l-0.703-0.193c-1.866-0.602-3.318-1.194-4.362-1.77-2.576-1.453-3.862-3.523-3.862-6.211 0-2.387 0.89-4.266 2.672-5.635 1.808-1.427 4.358-2.141 7.651-2.141 3.235 0 6.090 0.685 8.557 2.058 0.275 0.163 0.342 0.397 0.205 0.698l-1.44 3.005c-0.163 0.301-0.397 0.371-0.698 0.205-2.25-1.315-4.541-1.974-6.87-1.974-1.811 0-3.155 0.371-4.032 1.11-0.729 0.554-1.194 1.421-1.194 2.397 0 0.026 0 0.052 0.001 0.078l-0-0.004c-0 0.018-0.001 0.040-0.001 0.062 0 0.815 0.367 1.543 0.944 2.031l0.004 0.003c0.656 0.522 1.616 1.002 2.88 1.44 0.544 0.192 1.398 0.454 2.55 0.784s2.166 0.656 3.043 0.986c0.906 0.33 1.715 0.726 2.429 1.194 2.304 1.453 3.456 3.51 3.456 6.173 0 2.659-1.014 4.784-3.046 6.378-1.837 1.453-4.291 2.179-7.363 2.179zM48.858 1.971h3.578c0.33 0 0.496 0.176 0.496 0.534v26.989c0 0.33-0.166 0.493-0.496 0.493h-3.578c-0.358 0-0.534-0.163-0.534-0.493v-11.52h-14.771v11.52c0 0.33-0.163 0.493-0.493 0.493h-3.622c-0.33 0-0.493-0.163-0.493-0.493v-26.989c0-0.138 0.042-0.262 0.125-0.371 0.092-0.099 0.223-0.161 0.368-0.163h3.623c0.138 0 0.246 0.054 0.33 0.163 0.1 0.093 0.162 0.225 0.163 0.371v11.351h14.771v-11.35c0-0.358 0.176-0.534 0.534-0.534zM63.363 1.971h3.622c0.138 0 0.246 0.054 0.33 0.163 0.1 0.093 0.162 0.225 0.163 0.371v26.989c0 0.33-0.163 0.493-0.493 0.493h-3.626c-0.326 0-0.493-0.163-0.493-0.493v-26.989c0-0.138 0.042-0.262 0.125-0.371 0.092-0.099 0.223-0.161 0.368-0.163h0zM97.674 22.419v-19.914c0-0.358 0.166-0.534 0.493-0.534h3.376c0.355 0 0.534 0.176 0.534 0.534v26.989c0 0.33-0.179 0.493-0.534 0.493h-3.21c-0.003 0-0.007 0-0.010 0-0.385 0-0.72-0.214-0.893-0.529l-0.003-0.005-15.594-19.872v19.914c0 0.33-0.163 0.493-0.493 0.493h-3.414c-0.33 0-0.496-0.163-0.496-0.493v-26.989c0-0.138 0.042-0.262 0.125-0.371 0.093-0.1 0.225-0.162 0.371-0.163h3.21c0.352 0 0.672 0.176 0.944 0.534l15.594 19.914zM137.757 16c0 5.597-2.112 9.587-6.336 11.971-2.416 1.344-5.472 2.016-9.174 2.016h-9.712c-0.33 0-0.493-0.163-0.493-0.493v-26.989c0-0.138 0.042-0.262 0.122-0.371 0.093-0.1 0.225-0.162 0.371-0.163h10.288c5.046 0 8.912 1.453 11.6 4.362 2.224 2.413 3.334 5.635 3.334 9.667zM116.65 5.878v20.243h5.226c2.659 0 4.826-0.438 6.499-1.318 3.126-1.59 4.691-4.525 4.691-8.803 0-3.018-0.781-5.376-2.346-7.075-1.866-2.032-4.717-3.046-8.557-3.046h-5.514zM147.104 1.971h3.622c0.138 0 0.246 0.054 0.33 0.163 0.099 0.093 0.16 0.225 0.16 0.371v26.989c0 0.33-0.16 0.493-0.49 0.493h-3.622c-0.33 0-0.493-0.163-0.493-0.493v-26.989c0-0.138 0.042-0.262 0.122-0.371 0.093-0.1 0.225-0.162 0.371-0.163h0zM181.414 22.419v-19.914c0-0.358 0.163-0.534 0.493-0.534h3.373c0.358 0 0.538 0.176 0.538 0.534v26.989c0 0.33-0.179 0.493-0.538 0.493h-3.206c-0.003 0-0.006 0-0.010 0-0.385 0-0.72-0.214-0.893-0.529l-0.003-0.005-15.594-19.872v19.914c0 0.33-0.166 0.493-0.493 0.493h-3.418c-0.326 0-0.493-0.163-0.493-0.493v-26.989c0-0.138 0.042-0.262 0.125-0.371 0.092-0.099 0.223-0.161 0.368-0.163h3.21c0.358 0 0.672 0.176 0.947 0.534l15.594 19.914zM221.494 16c0 5.597-2.112 9.587-6.336 11.971-2.413 1.344-5.472 2.016-9.174 2.016h-9.709c-0.33 0-0.493-0.163-0.493-0.493v-26.989c0-0.138 0.042-0.262 0.122-0.371 0.093-0.1 0.225-0.162 0.371-0.163h10.285c5.046 0 8.915 1.453 11.603 4.362 2.221 2.413 3.331 5.635 3.331 9.667zM200.39 5.878v20.243h5.226c2.659 0 4.826-0.438 6.499-1.318 3.126-1.59 4.691-4.525 4.691-8.803 0-3.018-0.784-5.376-2.346-7.075-1.866-2.032-4.717-3.046-8.557-3.046h-5.514zM230.845 1.971h19.584c0.33 0 0.493 0.176 0.493 0.534v3.043c0 0.33-0.163 0.496-0.493 0.496h-15.469v7.856h13.328c0.33 0 0.496 0.166 0.496 0.496v3.085c0 0.33-0.166 0.493-0.496 0.493h-13.328v7.946h15.469c0.33 0 0.493 0.163 0.493 0.493v3.085c0 0.33-0.163 0.493-0.493 0.493h-19.584c-0.33 0-0.493-0.163-0.493-0.493v-26.992c0-0.138 0.042-0.262 0.122-0.371 0.093-0.1 0.225-0.162 0.371-0.163h0z">
            </path>
        </symbol>
        <symbol id="close" viewBox="0 0 32 32">
            <path stroke-linejoin="round" stroke-linecap="square" stroke-miterlimit="4" stroke-width="1"
                d="M24 8l-16 16M8 8l16 16"></path>
        </symbol>
        <symbol id="menu" viewBox="0 0 32 32">
            <path stroke-linejoin="round" stroke-linecap="square" stroke-miterlimit="4" stroke-width="2.6667"
                d="M4 16h24M4 8h24M4 24h24"></path>
        </symbol>
        <symbol id="Arrow-ap" viewBox="0 0 32 32">
            <path fill="none" stroke="#b31719" style="stroke: var(--color1, #b31719)" stroke-linejoin="round"
                stroke-linecap="round" stroke-miterlimit="4" stroke-width="1.7778"
                d="M16 30.222v-28.444M1.778 16l14.222-14.222 14.222 14.222"></path>
        </symbol>
        <symbol id="Arrow-R" viewBox="0 0 164 32">
            <path
                d="M161.416 17.416c0.363-0.362 0.588-0.863 0.588-1.416s-0.225-1.054-0.588-1.416l-12.728-12.728c-0.362-0.362-0.862-0.585-1.414-0.585-1.105 0-2.001 0.896-2.001 2.001 0 0.553 0.224 1.054 0.587 1.416l11.312 11.312-11.312 11.312c-0.363 0.362-0.587 0.863-0.587 1.416 0 1.105 0.896 2.001 2.001 2.001 0.552 0 1.052-0.224 1.414-0.585l12.728-12.728zM0 18h160v-4h-160v4z">
            </path>
        </symbol>
        <symbol id="Arrow-L" viewBox="0 0 164 32">
            <path
                d="M2.584 14.584c-0.363 0.362-0.588 0.863-0.588 1.416s0.225 1.054 0.588 1.416l12.728 12.728c0.362 0.362 0.863 0.587 1.416 0.587 1.106 0 2.003-0.897 2.003-2.003 0-0.553-0.224-1.054-0.587-1.416l-11.316-11.312 11.316-11.312c0.362-0.362 0.587-0.863 0.587-1.416 0-1.106-0.897-2.003-2.003-2.003-0.553 0-1.054 0.224-1.416 0.587l-12.728 12.728zM164 14h-160v4h160v-4z">
            </path>
        </symbol>
        <symbol id="instagram" viewBox="0 0 32 32">
            <path fill="none" stroke="#b31719" style="stroke: var(--color1, #b31719)" stroke-linejoin="round"
                stroke-linecap="round" stroke-miterlimit="4" stroke-width="2"
                d="M22.668 2.666h-13.334c-3.682 0-6.666 2.984-6.666 6.666v0 13.334c0 3.682 2.984 6.666 6.666 6.666v0h13.334c3.682 0 6.666-2.984 6.666-6.666v-13.334c0-3.682-2.984-6.666-6.666-6.666v0z">
            </path>
            <path fill="none" stroke="#b31719" style="stroke: var(--color1, #b31719)" stroke-linejoin="round"
                stroke-linecap="round" stroke-miterlimit="4" stroke-width="2"
                d="M21.334 15.16c0.041 0.25 0.065 0.537 0.065 0.83 0 2.946-2.388 5.334-5.334 5.334-2.686 0-4.909-1.986-5.28-4.57l-0.003-0.029c-0.032-0.221-0.051-0.476-0.051-0.736 0-2.946 2.388-5.334 5.334-5.334 2.653 0 4.853 1.937 5.265 4.473l0.004 0.031zM23.332 8.666h0.014">
            </path>
        </symbol>
    </defs>
</svg>